<svg width="608" height="688" viewBox="0 0 608 688" fill="none" xmlns="http://www.w3.org/2000/svg">
<path fill-rule="evenodd" clip-rule="evenodd" d="M9.34512 581.504C57.5098 692.569 382.267 680.439 485.71 540.338C589.152 400.238 483.304 80.7375 381.099 78.2259C278.893 75.7142 273.378 289.538 229.615 351.298C185.853 413.059 -38.8196 470.44 9.34512 581.504Z" fill="#C02F28" fill-opacity="0.7"/>
<path fill-rule="evenodd" clip-rule="evenodd" d="M227.71 203.739C203.755 203.739 184.336 223.158 184.336 247.112V251.001C179.941 251.739 176.591 255.562 176.591 260.167V270.467C176.591 275.183 180.103 279.078 184.655 279.681C186.478 294.703 195.982 307.357 209.121 313.598V327.714C176.372 329.134 150.257 356.134 150.257 389.233H305.162C305.162 356.134 279.047 329.134 246.298 327.714V313.598C259.438 307.357 268.941 294.703 270.764 279.681C275.316 279.078 278.828 275.183 278.828 270.467V260.167C278.828 255.562 275.479 251.739 271.083 251.001V247.113C271.083 223.158 251.664 203.739 227.71 203.739Z" fill="#D0C6AC"/>
<mask id="mask0" mask-type="alpha" maskUnits="userSpaceOnUse" x="150" y="203" width="156" height="187">
<path fill-rule="evenodd" clip-rule="evenodd" d="M227.71 203.739C203.755 203.739 184.336 223.158 184.336 247.112V251.001C179.941 251.739 176.591 255.562 176.591 260.167V270.467C176.591 275.183 180.103 279.078 184.655 279.681C186.478 294.703 195.982 307.357 209.121 313.598V327.714C176.372 329.134 150.257 356.134 150.257 389.233H305.162C305.162 356.134 279.047 329.134 246.298 327.714V313.598C259.438 307.357 268.941 294.703 270.764 279.681C275.316 279.078 278.828 275.183 278.828 270.467V260.167C278.828 255.562 275.479 251.739 271.083 251.001V247.113C271.083 223.158 251.664 203.739 227.71 203.739Z" fill="white"/>
</mask>
<g mask="url(#mask0)">
<rect x="125.473" y="203.739" width="204.474" height="185.494" fill="#FFDBB4"/>
<path fill-rule="evenodd" clip-rule="evenodd" d="M184.336 274.399V280.481C184.336 304.435 203.755 323.854 227.71 323.854C251.664 323.854 271.083 304.435 271.083 280.481V274.399C271.083 298.354 251.664 317.772 227.71 317.772C203.755 317.772 184.336 298.354 184.336 274.399Z" fill="black" fill-opacity="0.1"/>
</g>
<path fill-rule="evenodd" clip-rule="evenodd" d="M254.043 330.316C254.043 339.343 242.427 346.661 228.097 346.661C213.767 346.661 202.15 339.343 202.15 330.316C202.15 329.674 202.209 329.042 202.323 328.419C172.834 332.975 150.257 358.468 150.257 389.233H305.162C305.162 358.746 282.991 333.436 253.893 328.548C253.992 329.129 254.043 329.719 254.043 330.316Z" fill="#E6E6E6"/>
<mask id="mask1" mask-type="alpha" maskUnits="userSpaceOnUse" x="150" y="328" width="156" height="62">
<path fill-rule="evenodd" clip-rule="evenodd" d="M254.043 330.316C254.043 339.343 242.427 346.661 228.097 346.661C213.767 346.661 202.15 339.343 202.15 330.316C202.15 329.674 202.209 329.042 202.323 328.419C172.834 332.975 150.257 358.468 150.257 389.233H305.162C305.162 358.746 282.991 333.436 253.893 328.548C253.992 329.129 254.043 329.719 254.043 330.316Z" fill="white"/>
</mask>
<g mask="url(#mask1)">
<rect x="125.473" y="305.609" width="204.474" height="83.6243" fill="#FF5C5C"/>
</g>
<path fill-rule="evenodd" clip-rule="evenodd" d="M216.866 289.644C216.866 295.522 221.721 300.287 227.71 300.287C233.698 300.287 238.553 295.522 238.553 289.644" fill="black" fill-opacity="0.7"/>
<path fill-rule="evenodd" clip-rule="evenodd" d="M218.415 275.2C218.415 278.559 222.576 281.282 227.71 281.282C232.843 281.282 237.004 278.559 237.004 275.2" fill="black" fill-opacity="0.16"/>
<path d="M184.336 244.791H271.083V278.241H184.336V244.791Z" fill="#FFDBB4"/>
<path fill-rule="evenodd" clip-rule="evenodd" d="M207.572 266.077C210.139 266.077 212.219 264.035 212.219 261.516C212.219 258.997 210.139 256.955 207.572 256.955C205.006 256.955 202.925 258.997 202.925 261.516C202.925 264.035 205.006 266.077 207.572 266.077Z" fill="black" fill-opacity="0.6"/>
<path fill-rule="evenodd" clip-rule="evenodd" d="M239.025 263.763C240.247 260.784 243.316 258.555 247.05 258.298C250.771 258.043 254.116 259.818 255.754 262.584C256.241 263.405 255.684 264.143 255.036 263.669C253.029 262.201 250.268 261.388 247.285 261.593C244.395 261.791 241.847 262.907 240.073 264.547C239.424 265.147 238.668 264.634 239.025 263.763Z" fill="black" fill-opacity="0.6"/>
<path d="M196.442 251.754C199.475 247.566 207.787 245.218 214.948 246.943C215.779 247.144 216.618 246.645 216.822 245.83C217.026 245.014 216.518 244.191 215.687 243.99C207.371 241.986 197.745 244.705 193.917 249.992C193.422 250.677 193.585 251.626 194.282 252.112C194.98 252.599 195.947 252.438 196.442 251.754Z" fill="black" fill-opacity="0.6"/>
<path d="M258.977 251.754C255.945 247.566 247.632 245.218 240.472 246.943C239.641 247.144 238.802 246.645 238.598 245.83C238.394 245.014 238.902 244.191 239.733 243.99C248.049 241.986 257.675 244.705 261.503 249.992C261.998 250.677 261.835 251.626 261.137 252.112C260.44 252.599 259.473 252.438 258.977 251.754Z" fill="black" fill-opacity="0.6"/>
<mask id="mask2" mask-type="alpha" maskUnits="userSpaceOnUse" x="125" y="176" width="205" height="214">
<rect x="125.473" y="176.371" width="204.474" height="212.862" fill="white"/>
</mask>
<g mask="url(#mask2)">
<path fill-rule="evenodd" clip-rule="evenodd" d="M176.591 262.276C185.002 245.018 203.444 238.256 219.531 232.357C229.847 228.575 239.195 225.147 244.308 219.534C246.037 221.075 247.996 222.619 250.057 224.243L250.058 224.243C257.965 230.473 267.375 237.886 271.083 250.873L271.083 251.001C274.947 251.65 278.003 254.682 278.685 258.535V252.377C278.685 248.803 278.277 245.322 277.504 241.978C283.04 228.583 276.775 210.723 268.759 202.979C261.416 196.276 251.486 193.614 244.786 196.534C235.797 183.199 209.822 186.437 194.405 197.657C181.482 207.068 170.599 223.871 172.43 245.029C172.11 247.221 171.944 249.464 171.944 251.747L171.944 305.609L171.944 307.541C171.795 331.499 166.217 370.256 155.679 376.309C203.977 389.079 211.391 347.311 209.121 313.971L209.121 313.598C195.757 307.25 186.155 294.269 184.568 278.908C180.059 278.269 176.591 274.393 176.591 269.707V262.276L176.591 262.276ZM246.298 313.598C259.662 307.25 269.265 294.269 270.851 278.908C275.048 278.313 278.342 274.915 278.779 270.669C279.411 285.26 283.233 299.555 289.996 312.538L301.008 333.678C307.011 345.202 306.47 357.755 301.406 368.008C293.055 345.264 271.667 328.814 246.298 327.714V313.598Z" fill="#272C2E"/>
<mask id="mask3" mask-type="alpha" maskUnits="userSpaceOnUse" x="155" y="187" width="151" height="192">
<path fill-rule="evenodd" clip-rule="evenodd" d="M176.591 262.276C185.002 245.018 203.444 238.256 219.531 232.357C229.847 228.575 239.195 225.147 244.308 219.534C246.037 221.075 247.996 222.619 250.057 224.243L250.058 224.243C257.965 230.473 267.375 237.886 271.083 250.873L271.083 251.001C274.947 251.65 278.003 254.682 278.685 258.535V252.377C278.685 248.803 278.277 245.322 277.504 241.978C283.04 228.583 276.775 210.723 268.759 202.979C261.416 196.276 251.486 193.614 244.786 196.534C235.797 183.199 209.822 186.437 194.405 197.657C181.482 207.068 170.599 223.871 172.43 245.029C172.11 247.221 171.944 249.464 171.944 251.747L171.944 305.609L171.944 307.541C171.795 331.499 166.217 370.256 155.679 376.309C203.977 389.079 211.391 347.311 209.121 313.971L209.121 313.598C195.757 307.25 186.155 294.269 184.568 278.908C180.059 278.269 176.591 274.393 176.591 269.707V262.276L176.591 262.276ZM246.298 313.598C259.662 307.25 269.265 294.269 270.851 278.908C275.048 278.313 278.342 274.915 278.779 270.669C279.411 285.26 283.233 299.555 289.996 312.538L301.008 333.678C307.011 345.202 306.47 357.755 301.406 368.008C293.055 345.264 271.667 328.814 246.298 327.714V313.598Z" fill="white"/>
</mask>
<g mask="url(#mask3)">
<rect x="125.473" y="176.371" width="204.474" height="212.862" fill="#4A312C"/>
</g>
<path fill-rule="evenodd" clip-rule="evenodd" d="M219.531 232.357C203.444 238.256 185.002 245.018 176.591 262.276C176.591 262.276 176.591 262.276 176.591 262.276C185.002 247.299 203.444 241.431 219.531 236.312C229.847 233.029 239.195 230.055 244.308 225.184C246.361 226.771 248.738 228.27 251.225 229.839C258.849 234.648 267.508 240.109 271.054 250.772C267.326 237.848 257.945 230.457 250.058 224.243C247.996 222.619 246.037 221.075 244.308 219.534C239.195 225.147 229.847 228.575 219.531 232.357Z" fill="black" fill-opacity="0.16"/>
<g filter="url(#filter0_d)">
<path d="M227.71 250.957C219.161 250.957 217.928 244.051 200.346 243.074C182.776 242.295 177.223 247.414 177.193 250.957C177.221 254.221 176.318 262.703 187.717 272.638C199.158 284.431 210.88 280.432 215.08 276.58C219.295 274.799 224.101 258.825 227.71 258.841C231.319 258.858 236.125 274.799 240.339 276.58C244.54 280.432 256.261 284.431 267.702 272.638C279.101 262.703 278.198 254.221 278.227 250.957C278.197 247.414 272.643 242.295 255.073 243.074C237.492 244.051 236.258 250.957 227.71 250.957Z" fill="#F4F4F4"/>
<path d="M219.29 258.841C219.585 253.019 209.288 246.8 198.241 247.016C187.2 247.242 185.763 254.202 185.612 256.87C185.342 263.053 192.093 276.951 204.556 276.58C217.019 276.193 219.12 262.683 219.29 258.841Z" fill="#2F383B"/>
<path d="M236.129 258.841C235.834 253.019 246.131 246.8 257.178 247.016C268.219 247.242 269.657 254.202 269.807 256.87C270.078 263.053 263.327 276.951 250.863 276.58C238.4 276.193 236.3 262.683 236.129 258.841Z" fill="#2F383B"/>
</g>
</g>
<path fill-rule="evenodd" clip-rule="evenodd" d="M506.538 394.75C482.765 394.75 463.493 414.022 463.493 437.795V442.348C459.13 443.08 455.806 446.874 455.806 451.444V462.091C455.806 466.749 459.258 470.6 463.744 471.226C465.38 486.383 474.885 499.182 488.09 505.456V519.654C455.514 521.519 429.672 548.526 429.672 581.569H583.403C583.403 548.526 557.561 521.519 524.985 519.654V505.456C538.191 499.182 547.695 486.383 549.332 471.226C553.817 470.6 557.269 466.749 557.269 462.091V451.444C557.269 446.874 553.945 443.08 549.582 442.348V437.795C549.582 414.022 530.311 394.75 506.538 394.75Z" fill="#D0C6AC"/>
<mask id="mask4" mask-type="alpha" maskUnits="userSpaceOnUse" x="429" y="394" width="155" height="188">
<path fill-rule="evenodd" clip-rule="evenodd" d="M506.538 394.75C482.765 394.75 463.493 414.022 463.493 437.795V442.348C459.13 443.08 455.806 446.874 455.806 451.444V462.091C455.806 466.749 459.258 470.6 463.744 471.226C465.38 486.383 474.885 499.182 488.09 505.456V519.654C455.514 521.519 429.672 548.526 429.672 581.569H583.403C583.403 548.526 557.561 521.519 524.985 519.654V505.456C538.191 499.182 547.695 486.383 549.332 471.226C553.817 470.6 557.269 466.749 557.269 462.091V451.444C557.269 446.874 553.945 443.08 549.582 442.348V437.795C549.582 414.022 530.311 394.75 506.538 394.75Z" fill="white"/>
</mask>
<g mask="url(#mask4)">
<rect x="405.075" y="394.75" width="202.925" height="186.819" fill="#EDB98A"/>
<path fill-rule="evenodd" clip-rule="evenodd" d="M463.493 466.553V472.678C463.493 496.451 482.765 515.723 506.538 515.723C530.311 515.723 549.582 496.451 549.582 472.678V466.553C549.582 490.326 530.311 509.598 506.538 509.598C482.765 509.598 463.493 490.326 463.493 466.553Z" fill="black" fill-opacity="0.1"/>
</g>
<path fill-rule="evenodd" clip-rule="evenodd" d="M532.672 522.231C532.672 531.323 521.143 538.693 506.922 538.693C492.701 538.693 481.172 531.323 481.172 522.231C481.172 521.629 481.223 521.034 481.321 520.448C452.008 525.365 429.672 550.859 429.672 581.569H583.403C583.403 551.136 561.468 525.825 532.545 520.586C532.629 521.127 532.672 521.676 532.672 522.231Z" fill="#E6E6E6"/>
<mask id="mask5" mask-type="alpha" maskUnits="userSpaceOnUse" x="429" y="520" width="155" height="62">
<path fill-rule="evenodd" clip-rule="evenodd" d="M532.672 522.231C532.672 531.323 521.143 538.693 506.922 538.693C492.701 538.693 481.172 531.323 481.172 522.231C481.172 521.629 481.223 521.034 481.321 520.448C452.008 525.365 429.672 550.859 429.672 581.569H583.403C583.403 551.136 561.468 525.825 532.545 520.586C532.629 521.127 532.672 521.676 532.672 522.231Z" fill="white"/>
</mask>
<g mask="url(#mask5)">
<rect x="405.075" y="497.347" width="202.925" height="84.2216" fill="#25557C"/>
</g>
<path d="M465.03 469.784H548.045V503.473H465.03V469.784Z" fill="#EDB98A"/>
<path d="M495.776 482.034C495.776 486.147 500.51 488.925 506.538 488.925C512.565 488.925 517.299 486.147 517.299 482.034C517.299 481.189 516.569 480.503 515.762 480.503C514.768 480.503 514.324 481.196 514.224 482.034C513.269 484.284 510.906 485.645 506.538 485.863C502.169 485.645 499.806 484.284 498.851 482.034C498.751 481.196 498.307 480.503 497.314 480.503C496.506 480.503 495.776 481.189 495.776 482.034Z" fill="black" fill-opacity="0.6"/>
<path fill-rule="evenodd" clip-rule="evenodd" d="M497.314 466.721C497.314 470.104 501.443 472.847 506.538 472.847C511.632 472.847 515.761 470.104 515.761 466.721" fill="black" fill-opacity="0.16"/>
<path d="M463.493 436.095H549.582V469.784H463.493V436.095Z" fill="#EDB98A"/>
<path fill-rule="evenodd" clip-rule="evenodd" d="M486.553 463.659C492.496 463.659 497.314 458.86 497.314 452.94C497.314 447.02 492.496 442.221 486.553 442.221C480.609 442.221 475.791 447.02 475.791 452.94C475.791 458.86 480.609 463.659 486.553 463.659Z" fill="white"/>
<path fill-rule="evenodd" clip-rule="evenodd" d="M526.523 463.659C532.466 463.659 537.284 458.86 537.284 452.94C537.284 447.02 532.466 442.221 526.523 442.221C520.579 442.221 515.761 447.02 515.761 452.94C515.761 458.86 520.579 463.659 526.523 463.659Z" fill="white"/>
<path fill-rule="evenodd" clip-rule="evenodd" d="M486.553 451.408C489.1 451.408 491.165 449.352 491.165 446.814C491.165 444.277 489.1 442.221 486.553 442.221C484.006 442.221 481.941 444.277 481.941 446.814C481.941 449.352 484.006 451.408 486.553 451.408Z" fill="black" fill-opacity="0.7"/>
<path fill-rule="evenodd" clip-rule="evenodd" d="M526.523 451.408C529.07 451.408 531.134 449.352 531.134 446.814C531.134 444.277 529.07 442.221 526.523 442.221C523.975 442.221 521.911 444.277 521.911 446.814C521.911 449.352 523.975 451.408 526.523 451.408Z" fill="black" fill-opacity="0.7"/>
<path d="M475.773 443.084C476.922 435.793 486.598 430.819 493.596 434.029C494.367 434.383 495.28 434.047 495.636 433.278C495.991 432.51 495.653 431.601 494.882 431.247C486.052 427.197 474.205 433.287 472.735 442.609C472.604 443.445 473.177 444.228 474.016 444.359C474.854 444.491 475.641 443.92 475.773 443.084Z" fill="black" fill-opacity="0.6"/>
<path d="M537.303 443.084C536.153 435.793 526.478 430.819 519.479 434.029C518.708 434.383 517.795 434.047 517.44 433.278C517.085 432.51 517.422 431.601 518.193 431.247C527.023 427.197 538.871 433.287 540.34 442.609C540.472 443.445 539.898 444.228 539.06 444.359C538.221 444.491 537.434 443.92 537.303 443.084Z" fill="black" fill-opacity="0.6"/>
<mask id="mask6" mask-type="alpha" maskUnits="userSpaceOnUse" x="405" y="367" width="203" height="215">
<rect x="405.075" y="367.187" width="202.925" height="214.382" fill="white"/>
</mask>
<g mask="url(#mask6)">
<path fill-rule="evenodd" clip-rule="evenodd" d="M557.269 451.444C557.269 450.996 557.237 450.555 557.175 450.123C540.636 441.251 526.437 428.548 517.18 414.123C508.287 426.675 493.682 432.641 479.219 438.549L479.219 438.549C471.082 441.873 462.989 445.178 455.985 449.628C455.868 450.215 455.807 450.823 455.807 451.444V461.326C455.807 465.957 459.219 469.791 463.667 470.45C465.057 485.946 474.66 499.076 488.09 505.456V519.654C455.514 521.519 429.672 548.526 429.672 581.569H428.908C407.461 569.371 419.114 551.842 427.208 539.667C427.399 539.38 427.588 539.095 427.775 538.814C430.574 534.595 432.818 531.079 432.881 528.739C432.991 525.204 430.466 522.74 427.374 519.722C422.601 515.064 416.477 509.087 416.607 495.816C417.002 483.693 424.14 478.779 430.527 474.382C430.719 474.249 430.911 474.117 431.102 473.985C433.964 472.01 436.627 470.099 438.399 467.635C439.776 465.719 440.614 463.47 440.589 460.596C440.632 455.848 439.714 452.011 438.763 448.032C436.799 439.821 434.692 431.011 440.589 412.36C449.534 384.444 472.653 377.728 505.771 377.153V377.14L506.156 377.146L506.54 377.14V377.153C539.658 377.728 562.777 384.444 571.722 412.36C577.619 431.011 575.512 439.821 573.548 448.032C573.025 450.222 572.511 452.369 572.163 454.649C571.878 456.511 571.703 458.462 571.722 460.596C571.663 467.413 576.463 470.718 581.784 474.382C582.583 474.931 583.393 475.489 584.2 476.068C589.85 480.12 595.358 485.208 595.704 495.816C595.712 496.646 595.696 497.446 595.657 498.22C595.074 509.829 589.412 515.355 584.937 519.722C581.845 522.74 579.32 525.204 579.43 528.739C579.439 529.051 579.486 529.384 579.568 529.737C580.142 532.205 582.428 535.644 585.103 539.667C586.115 541.189 587.182 542.795 588.233 544.463C595.593 556.141 602.169 570.896 583.403 581.569C583.403 548.526 557.562 521.519 524.986 519.654V505.456C538.416 499.076 548.018 485.946 549.409 470.45C553.856 469.791 557.269 465.957 557.269 461.326V451.444Z" fill="#314756"/>
<mask id="mask7" mask-type="alpha" maskUnits="userSpaceOnUse" x="416" y="377" width="180" height="205">
<path fill-rule="evenodd" clip-rule="evenodd" d="M557.269 451.444C557.269 450.996 557.237 450.555 557.175 450.123C540.636 441.251 526.437 428.548 517.18 414.123C508.287 426.675 493.682 432.641 479.219 438.549L479.219 438.549C471.082 441.873 462.989 445.178 455.985 449.628C455.868 450.215 455.807 450.823 455.807 451.444V461.326C455.807 465.957 459.219 469.791 463.667 470.45C465.057 485.946 474.66 499.076 488.09 505.456V519.654C455.514 521.519 429.672 548.526 429.672 581.569H428.908C407.461 569.371 419.114 551.842 427.208 539.667C427.399 539.38 427.588 539.095 427.775 538.814C430.574 534.595 432.818 531.079 432.881 528.739C432.991 525.204 430.466 522.74 427.374 519.722C422.601 515.064 416.477 509.087 416.607 495.816C417.002 483.693 424.14 478.779 430.527 474.382C430.719 474.249 430.911 474.117 431.102 473.985C433.964 472.01 436.627 470.099 438.399 467.635C439.776 465.719 440.614 463.47 440.589 460.596C440.632 455.848 439.714 452.011 438.763 448.032C436.799 439.821 434.692 431.011 440.589 412.36C449.534 384.444 472.653 377.728 505.771 377.153V377.14L506.156 377.146L506.54 377.14V377.153C539.658 377.728 562.777 384.444 571.722 412.36C577.619 431.011 575.512 439.821 573.548 448.032C573.025 450.222 572.511 452.369 572.163 454.649C571.878 456.511 571.703 458.462 571.722 460.596C571.663 467.413 576.463 470.718 581.784 474.382C582.583 474.931 583.393 475.489 584.2 476.068C589.85 480.12 595.358 485.208 595.704 495.816C595.712 496.646 595.696 497.446 595.657 498.22C595.074 509.829 589.412 515.355 584.937 519.722C581.845 522.74 579.32 525.204 579.43 528.739C579.439 529.051 579.486 529.384 579.568 529.737C580.142 532.205 582.428 535.644 585.103 539.667C586.115 541.189 587.182 542.795 588.233 544.463C595.593 556.141 602.169 570.896 583.403 581.569C583.403 548.526 557.562 521.519 524.986 519.654V505.456C538.416 499.076 548.018 485.946 549.409 470.45C553.856 469.791 557.269 465.957 557.269 461.326V451.444Z" fill="white"/>
</mask>
<g mask="url(#mask7)">
<rect x="405.075" y="367.187" width="202.925" height="214.382" fill="#4A312C"/>
</g>
<mask id="mask8" mask-type="alpha" maskUnits="userSpaceOnUse" x="416" y="377" width="180" height="205">
<path fill-rule="evenodd" clip-rule="evenodd" d="M572.163 454.649C572.511 452.369 573.025 450.222 573.548 448.032C575.512 439.821 577.619 431.011 571.722 412.36C562.777 384.444 539.658 377.728 506.54 377.153V377.14L506.156 377.146L505.771 377.14V377.153C472.653 377.728 449.534 384.444 440.589 412.36C434.692 431.011 436.799 439.821 438.763 448.032C439.714 452.011 440.632 455.848 440.589 460.596C440.614 463.47 439.776 465.719 438.399 467.635C436.627 470.099 433.964 472.01 431.102 473.985C430.911 474.117 430.719 474.249 430.527 474.382C424.14 478.779 417.002 483.693 416.607 495.816C416.477 509.087 422.601 515.064 427.374 519.722C430.466 522.74 432.991 525.204 432.881 528.739C432.818 531.079 430.574 534.595 427.775 538.814C427.588 539.095 427.399 539.38 427.208 539.667C419.114 551.842 407.461 569.371 428.908 581.569H429.672C429.672 548.526 455.514 521.519 488.09 519.654V484.331H524.986V519.654C557.562 521.519 583.403 548.526 583.403 581.569C602.169 570.896 595.593 556.141 588.233 544.463C587.182 542.795 586.115 541.189 585.103 539.667C582.428 535.644 580.142 532.205 579.568 529.737C579.486 529.384 579.439 529.051 579.43 528.739C579.32 525.204 581.845 522.74 584.937 519.722C589.412 515.355 595.074 509.829 595.657 498.22C595.696 497.446 595.712 496.646 595.704 495.816C595.358 485.208 589.85 480.12 584.2 476.068C583.393 475.489 582.583 474.931 581.784 474.382C576.463 470.718 571.663 467.413 571.722 460.596C571.703 458.462 571.878 456.511 572.163 454.649Z" fill="white"/>
</mask>
<g mask="url(#mask8)">
<path fill-rule="evenodd" clip-rule="evenodd" d="M479.219 438.549C465.433 444.18 451.776 449.758 443.323 460.938C443.069 461.274 442.786 461.662 442.489 462.079C451.39 452.895 464.636 447.964 478 442.989C493.117 437.361 508.384 431.678 517.679 419.72C530.051 437.29 551.279 452.286 574.856 460.292C574.979 459.977 574.994 459.634 575.009 459.293C575.023 458.962 575.037 458.631 575.151 458.327C575.515 456.155 576.052 454.11 576.599 452.024C578.652 444.201 580.854 435.808 574.69 418.04C574.176 416.578 573.333 415.197 572.196 413.895C577.502 431.501 575.457 440.05 573.548 448.033C573.025 450.222 572.511 452.369 572.163 454.649C572.054 454.968 572.04 455.315 572.026 455.663C572.012 456.021 571.998 456.381 571.881 456.712C549.325 448.307 529.016 432.566 517.18 414.123C508.287 426.675 493.682 432.641 479.219 438.549ZM439.741 465.234C440.297 463.877 440.605 462.353 440.589 460.596C440.632 455.848 439.714 452.011 438.763 448.033C436.854 440.05 434.81 431.501 440.115 413.895C438.978 415.197 438.135 416.578 437.621 418.04C431.457 435.808 433.659 444.201 435.712 452.024C436.706 455.814 437.665 459.47 437.621 463.993C437.647 466.73 436.771 468.873 435.331 470.698C435.422 470.878 436.657 469.257 438.016 467.474C438.595 466.715 439.196 465.926 439.741 465.234Z" fill="black" fill-opacity="0.16"/>
</g>
<path fill-rule="evenodd" clip-rule="evenodd" d="M443.322 460.938C460.645 438.03 499.81 438.641 517.18 414.123C529.016 432.566 549.325 448.307 571.88 456.712C572.112 456.058 571.942 455.296 572.162 454.649C573.819 443.82 579.191 435.984 571.722 412.36C562.777 384.444 539.658 377.728 506.54 377.153C506.028 377.144 505.899 377.142 505.771 377.14C472.653 377.728 449.534 384.444 440.589 412.36C431.835 440.047 440.719 446.048 440.589 460.596C440.614 463.47 439.776 465.719 438.399 467.635C438.54 467.942 441.591 463.227 443.322 460.938Z" fill="white" fill-opacity="0.1"/>
</g>
<path fill-rule="evenodd" clip-rule="evenodd" d="M433.732 27.368C409.778 27.368 390.359 46.7868 390.359 70.7412V74.6302C385.964 75.3676 382.614 79.1906 382.614 83.7959V94.0958C382.614 98.8116 386.126 102.707 390.678 103.309C392.501 118.332 402.004 130.985 415.144 137.227V151.343C382.395 152.763 356.28 179.763 356.28 212.862H511.185C511.185 179.763 485.07 152.763 452.321 151.343V137.227C465.461 130.985 474.964 118.332 476.787 103.309C481.339 102.707 484.851 98.8117 484.851 94.0958V83.7959C484.851 79.1906 481.501 75.3676 477.106 74.6302V70.7412C477.106 46.7868 457.687 27.368 433.732 27.368Z" fill="#D0C6AC"/>
<mask id="mask9" mask-type="alpha" maskUnits="userSpaceOnUse" x="356" y="27" width="156" height="186">
<path fill-rule="evenodd" clip-rule="evenodd" d="M433.732 27.368C409.778 27.368 390.359 46.7868 390.359 70.7412V74.6302C385.964 75.3676 382.614 79.1906 382.614 83.7959V94.0958C382.614 98.8116 386.126 102.707 390.678 103.309C392.501 118.332 402.004 130.985 415.144 137.227V151.343C382.395 152.763 356.28 179.763 356.28 212.862H511.185C511.185 179.763 485.07 152.763 452.321 151.343V137.227C465.461 130.985 474.964 118.332 476.787 103.309C481.339 102.707 484.851 98.8117 484.851 94.0958V83.7959C484.851 79.1906 481.501 75.3676 477.106 74.6302V70.7412C477.106 46.7868 457.687 27.368 433.732 27.368Z" fill="white"/>
</mask>
<g mask="url(#mask9)">
<rect x="331.496" y="27.368" width="204.474" height="185.494" fill="#EDB98A"/>
<path fill-rule="evenodd" clip-rule="evenodd" d="M390.359 98.0279V104.11C390.359 128.064 409.778 147.483 433.733 147.483C457.687 147.483 477.106 128.064 477.106 104.11V98.0279C477.106 121.982 457.687 141.401 433.733 141.401C409.778 141.401 390.359 121.982 390.359 98.0279Z" fill="black" fill-opacity="0.1"/>
</g>
<path fill-rule="evenodd" clip-rule="evenodd" d="M472.459 156.87C472.459 169.247 455.294 179.281 434.12 179.281C412.946 179.281 395.781 169.247 395.781 156.87C395.781 156.36 395.81 155.855 395.867 155.354C372.72 164.195 356.28 186.608 356.28 212.862H511.185C511.185 186.914 495.126 164.718 472.404 155.669C472.44 156.066 472.459 156.467 472.459 156.87Z" fill="#E6E6E6"/>
<mask id="mask10" mask-type="alpha" maskUnits="userSpaceOnUse" x="356" y="155" width="156" height="58">
<path fill-rule="evenodd" clip-rule="evenodd" d="M472.459 156.87C472.459 169.247 455.294 179.281 434.12 179.281C412.946 179.281 395.781 169.247 395.781 156.87C395.781 156.36 395.81 155.855 395.867 155.354C372.72 164.195 356.28 186.608 356.28 212.862H511.185C511.185 186.914 495.126 164.718 472.404 155.669C472.44 156.066 472.459 156.467 472.459 156.87Z" fill="white"/>
</mask>
<g mask="url(#mask10)">
<rect x="331.496" y="129.238" width="204.474" height="83.6243" fill="#E6E6E6"/>
</g>
<path fill-rule="evenodd" clip-rule="evenodd" d="M422.889 113.273C422.889 119.151 427.744 123.916 433.733 123.916C439.721 123.916 444.576 119.151 444.576 113.273" fill="black" fill-opacity="0.7"/>
<path fill-rule="evenodd" clip-rule="evenodd" d="M424.438 98.8287C424.438 102.188 428.599 104.911 433.733 104.911C438.866 104.911 443.027 102.188 443.027 98.8287" fill="black" fill-opacity="0.16"/>
<path fill-rule="evenodd" clip-rule="evenodd" d="M413.595 89.7061C416.162 89.7061 418.242 87.6639 418.242 85.1448C418.242 82.6256 416.162 80.5834 413.595 80.5834C411.029 80.5834 408.948 82.6256 408.948 85.1448C408.948 87.6639 411.029 89.7061 413.595 89.7061Z" fill="black" fill-opacity="0.6"/>
<path fill-rule="evenodd" clip-rule="evenodd" d="M453.87 89.7061C456.437 89.7061 458.517 87.6639 458.517 85.1448C458.517 82.6256 456.437 80.5834 453.87 80.5834C451.304 80.5834 449.223 82.6256 449.223 85.1448C449.223 87.6639 451.304 89.7061 453.87 89.7061Z" fill="black" fill-opacity="0.6"/>
<path d="M402.465 75.3824C405.498 71.1946 413.81 68.8462 420.971 70.5722C421.802 70.7725 422.641 70.2737 422.845 69.4582C423.049 68.6428 422.541 67.8193 421.71 67.6191C413.394 65.6147 403.768 68.334 399.94 73.6209C399.444 74.3054 399.608 75.2546 400.305 75.741C401.003 76.2274 401.97 76.0669 402.465 75.3824Z" fill="black" fill-opacity="0.6"/>
<path d="M465 75.3824C461.968 71.1946 453.655 68.8462 446.495 70.5722C445.664 70.7725 444.825 70.2737 444.621 69.4582C444.417 68.6428 444.925 67.8193 445.756 67.6191C454.072 65.6147 463.698 68.334 467.526 73.6209C468.021 74.3054 467.858 75.2546 467.16 75.741C466.463 76.2274 465.496 76.0669 465 75.3824Z" fill="black" fill-opacity="0.6"/>
<mask id="mask11" mask-type="alpha" maskUnits="userSpaceOnUse" x="331" y="0" width="205" height="213">
<rect x="331.496" width="204.474" height="212.862" fill="white"/>
</mask>
<g mask="url(#mask11)">
<path fill-rule="evenodd" clip-rule="evenodd" d="M401.133 42.0868H466.329C480.462 34.0836 483.116 19.8806 473.117 7.54597C470.628 4.4753 466.329 16.4782 453.118 17.2194C439.907 17.9605 441.175 12.4295 427.116 14.5004C413.058 16.5713 414.611 27.6557 405.437 30.3152C396.263 32.9748 401.133 42.0868 401.133 42.0868Z" fill="#252E32"/>
<mask id="mask12" mask-type="alpha" maskUnits="userSpaceOnUse" x="399" y="7" width="81" height="36">
<path fill-rule="evenodd" clip-rule="evenodd" d="M401.133 42.0868H466.329C480.462 34.0836 483.116 19.8806 473.117 7.54597C470.628 4.4753 466.329 16.4782 453.118 17.2194C439.907 17.9605 441.175 12.4295 427.116 14.5004C413.058 16.5713 414.611 27.6557 405.437 30.3152C396.263 32.9748 401.133 42.0868 401.133 42.0868Z" fill="white"/>
</mask>
<g mask="url(#mask12)">
<rect x="331.496" width="204.474" height="212.862" fill="#724133"/>
</g>
<g filter="url(#filter1_d)">
<path fill-rule="evenodd" clip-rule="evenodd" d="M420.759 76.2313C422.596 76.2483 423.464 76.548 423.777 78.4283C424.094 80.3329 423.786 82.4742 423.42 84.3502C422.862 87.2147 421.934 90.0212 419.774 92.1148C418.636 93.2174 417.248 94.0962 415.772 94.6963C414.988 95.0151 414.16 95.2452 413.333 95.4198C413.091 95.4707 411.025 95.75 412.292 95.6081C409.336 95.9393 406.129 95.9261 403.66 94.0793C400.924 92.0325 399.05 88.7937 398.226 85.5676C397.744 83.6799 396.731 79.1652 398.582 77.6559C400.702 75.9267 420.759 76.2313 420.759 76.2313ZM402.146 71.0734C397.932 71.2159 395.12 71.9426 393.042 76.0747C389.233 83.6472 395.752 95.0039 403.025 98.0985C411.527 101.717 421.024 97.7126 425.519 90.4707C427.9 86.6364 429.103 80.8291 429.025 76.4051C428.927 70.7587 424.909 70.6021 420.185 70.7263L402.146 71.0734Z" fill="#D6EAF2"/>
<path fill-rule="evenodd" clip-rule="evenodd" d="M446.652 76.2293C444.815 76.2465 443.947 76.5461 443.634 78.4263C443.317 80.331 443.625 82.4722 443.991 84.3482C444.549 87.2127 445.477 90.0192 447.637 92.1129C448.775 93.2154 450.163 94.0942 451.639 94.6946C452.423 95.0131 453.251 95.2432 454.078 95.4178C454.32 95.4687 456.385 95.7482 455.119 95.6061C458.075 95.9373 461.282 95.9241 463.751 94.0773C466.487 92.0305 468.361 88.792 469.185 85.5658C469.667 83.678 470.68 79.1635 468.829 77.654C466.709 75.9247 446.652 76.2293 446.652 76.2293ZM465.265 71.0715C469.479 71.2139 472.291 71.9409 474.369 76.0727C478.178 83.6453 471.659 95.002 464.386 98.0968C455.884 101.715 446.386 97.7106 441.891 90.469C439.511 86.6345 438.308 80.8271 438.385 76.4031C438.484 70.7567 442.502 70.6001 447.225 70.7245L465.265 71.0715Z" fill="#D6EAF2"/>
<path fill-rule="evenodd" clip-rule="evenodd" d="M395.159 74.4459C392.516 74.5916 389.497 74.6266 387.021 75.7479C384.4 76.9354 383.995 79.6245 387.299 79.995C388.788 80.162 390.278 79.8861 391.744 79.6294C392.944 79.419 394.574 79.4872 395.709 79.0369C397.822 78.1981 397.687 74.304 395.159 74.4459Z" fill="#D6EAF2"/>
<path fill-rule="evenodd" clip-rule="evenodd" d="M472.253 74.4459C474.896 74.5916 477.916 74.6266 480.391 75.7479C483.013 76.9354 483.418 79.6245 480.113 79.995C478.625 80.162 477.134 79.8861 475.669 79.6294C474.469 79.419 472.838 79.4872 471.704 79.0369C469.59 78.1981 469.726 74.304 472.253 74.4459Z" fill="#D6EAF2"/>
<path fill-rule="evenodd" clip-rule="evenodd" d="M441.563 76.0317C440.055 74.2832 436.127 73.2736 433.649 73.2736C431.17 73.2736 427.357 74.2832 425.85 76.0317C425.09 76.9133 425.064 78.0929 426.381 78.6456C428.022 79.3341 429.486 78.0856 430.799 77.4325C432.479 76.5973 435.059 76.689 436.613 77.4325C437.936 78.0655 439.391 79.3341 441.031 78.6456C442.349 78.0929 442.323 76.9133 441.563 76.0317Z" fill="#D6EAF2"/>
</g>
</g>
<path fill-rule="evenodd" clip-rule="evenodd" d="M227.71 502.506C203.755 502.506 184.336 521.925 184.336 545.879V549.768C179.941 550.506 176.591 554.329 176.591 558.934V569.234C176.591 573.95 180.103 577.845 184.655 578.447C186.478 593.47 195.982 606.123 209.121 612.365V626.481C176.372 627.901 150.257 654.901 150.257 688H305.162C305.162 654.901 279.047 627.901 246.298 626.481V612.365C259.438 606.123 268.941 593.47 270.764 578.447C275.316 577.845 278.828 573.95 278.828 569.234V558.934C278.828 554.329 275.479 550.506 271.083 549.768V545.879C271.083 521.925 251.664 502.506 227.71 502.506Z" fill="#D0C6AC"/>
<mask id="mask13" mask-type="alpha" maskUnits="userSpaceOnUse" x="150" y="502" width="156" height="186">
<path fill-rule="evenodd" clip-rule="evenodd" d="M227.71 502.506C203.755 502.506 184.336 521.925 184.336 545.879V549.768C179.941 550.506 176.591 554.329 176.591 558.934V569.234C176.591 573.95 180.103 577.845 184.655 578.447C186.478 593.47 195.982 606.123 209.121 612.365V626.481C176.372 627.901 150.257 654.901 150.257 688H305.162C305.162 654.901 279.047 627.901 246.298 626.481V612.365C259.438 606.123 268.941 593.47 270.764 578.447C275.316 577.845 278.828 573.95 278.828 569.234V558.934C278.828 554.329 275.479 550.506 271.083 549.768V545.879C271.083 521.925 251.664 502.506 227.71 502.506Z" fill="white"/>
</mask>
<g mask="url(#mask13)">
<rect x="125.473" y="502.506" width="204.474" height="185.494" fill="#AE5D29"/>
<path fill-rule="evenodd" clip-rule="evenodd" d="M184.336 573.166V579.248C184.336 603.202 203.755 622.621 227.71 622.621C251.664 622.621 271.083 603.202 271.083 579.248V573.166C271.083 597.12 251.664 616.539 227.71 616.539C203.755 616.539 184.336 597.12 184.336 573.166Z" fill="black" fill-opacity="0.1"/>
</g>
<path fill-rule="evenodd" clip-rule="evenodd" d="M266.436 632.008C266.436 644.385 249.271 654.419 228.097 654.419C206.923 654.419 189.758 644.385 189.758 632.008C189.758 631.499 189.787 630.993 189.844 630.492C166.697 639.333 150.257 661.747 150.257 688H305.162C305.162 662.053 289.103 639.856 266.382 630.807C266.417 631.204 266.436 631.605 266.436 632.008Z" fill="#E6E6E6"/>
<mask id="mask14" mask-type="alpha" maskUnits="userSpaceOnUse" x="150" y="630" width="156" height="58">
<path fill-rule="evenodd" clip-rule="evenodd" d="M266.436 632.008C266.436 644.385 249.271 654.419 228.097 654.419C206.923 654.419 189.758 644.385 189.758 632.008C189.758 631.499 189.787 630.993 189.844 630.492C166.697 639.333 150.257 661.747 150.257 688H305.162C305.162 662.053 289.103 639.856 266.382 630.807C266.417 631.204 266.436 631.605 266.436 632.008Z" fill="white"/>
</mask>
<g mask="url(#mask14)">
<rect x="125.473" y="604.376" width="204.474" height="83.6243" fill="#E6E6E6"/>
</g>
<path fill-rule="evenodd" clip-rule="evenodd" d="M213.085 588.508C213.904 595.724 220.14 601.335 227.71 601.335C235.303 601.335 241.554 595.69 242.342 588.442C242.405 587.858 241.742 586.891 240.91 586.891C229.374 586.891 220.536 586.891 214.61 586.891C213.773 586.891 213.003 587.787 213.085 588.508Z" fill="black" fill-opacity="0.7"/>
<mask id="mask15" mask-type="alpha" maskUnits="userSpaceOnUse" x="213" y="586" width="30" height="16">
<path fill-rule="evenodd" clip-rule="evenodd" d="M213.085 588.508C213.904 595.724 220.14 601.335 227.71 601.335C235.303 601.335 241.554 595.69 242.342 588.442C242.405 587.858 241.742 586.891 240.91 586.891C229.374 586.891 220.536 586.891 214.61 586.891C213.773 586.891 213.003 587.787 213.085 588.508Z" fill="white"/>
</mask>
<g mask="url(#mask15)">
<rect x="216.092" y="578.528" width="24.0102" height="12.1635" rx="5" fill="white"/>
<path fill-rule="evenodd" clip-rule="evenodd" d="M223.837 611.978C228.542 611.978 232.357 608.234 232.357 603.615C232.357 598.997 228.542 595.253 223.837 595.253C219.132 595.253 215.317 598.997 215.317 603.615C215.317 608.234 219.132 611.978 223.837 611.978Z" fill="#FF4F6D"/>
<path fill-rule="evenodd" clip-rule="evenodd" d="M231.582 611.978C236.288 611.978 240.102 608.234 240.102 603.615C240.102 598.997 236.288 595.253 231.582 595.253C226.877 595.253 223.062 598.997 223.062 603.615C223.062 608.234 226.877 611.978 231.582 611.978Z" fill="#FF4F6D"/>
</g>
<path fill-rule="evenodd" clip-rule="evenodd" d="M218.415 573.967C218.415 577.326 222.576 580.049 227.71 580.049C232.843 580.049 237.004 577.326 237.004 573.967" fill="black" fill-opacity="0.16"/>
<path fill-rule="evenodd" clip-rule="evenodd" d="M207.572 564.844C210.139 564.844 212.219 562.802 212.219 560.283C212.219 557.764 210.139 555.722 207.572 555.722C205.006 555.722 202.925 557.764 202.925 560.283C202.925 562.802 205.006 564.844 207.572 564.844Z" fill="black" fill-opacity="0.6"/>
<path fill-rule="evenodd" clip-rule="evenodd" d="M247.847 564.844C250.414 564.844 252.494 562.802 252.494 560.283C252.494 557.764 250.414 555.722 247.847 555.722C245.281 555.722 243.2 557.764 243.2 560.283C243.2 562.802 245.281 564.844 247.847 564.844Z" fill="black" fill-opacity="0.6"/>
<path d="M196.442 550.521C199.475 546.333 207.787 543.984 214.948 545.71C215.779 545.911 216.618 545.412 216.822 544.596C217.026 543.781 216.518 542.957 215.687 542.757C207.371 540.753 197.745 543.472 193.917 548.759C193.422 549.443 193.585 550.393 194.282 550.879C194.98 551.366 195.947 551.205 196.442 550.521Z" fill="black" fill-opacity="0.6"/>
<path d="M258.977 550.521C255.945 546.333 247.632 543.984 240.472 545.71C239.641 545.911 238.802 545.412 238.598 544.596C238.394 543.781 238.902 542.957 239.733 542.757C248.049 540.753 257.675 543.472 261.503 548.759C261.998 549.443 261.835 550.393 261.137 550.879C260.44 551.366 259.473 551.205 258.977 550.521Z" fill="black" fill-opacity="0.6"/>
<mask id="mask16" mask-type="alpha" maskUnits="userSpaceOnUse" x="125" y="475" width="205" height="213">
<rect x="125.473" y="475.138" width="204.474" height="212.862" fill="white"/>
</mask>
<g mask="url(#mask16)">
<mask id="mask17" mask-type="alpha" maskUnits="userSpaceOnUse" x="125" y="475" width="205" height="213">
<path fill-rule="evenodd" clip-rule="evenodd" d="M329.947 475.138H125.473V688H150.257C150.257 654.901 176.372 627.901 209.121 626.481V612.442C195.543 606.111 185.847 593.059 184.498 577.665C180.023 576.995 176.591 573.135 176.591 568.474V558.934C176.591 554.329 179.941 550.506 184.336 549.768V545.078C184.336 538.99 185.638 533.2 187.984 527.962C194.647 516.041 259.802 515.43 267.49 528.087C269.801 533.292 271.083 539.038 271.083 545.078V549.768C275.479 550.506 278.828 554.329 278.828 558.934V568.474C278.828 573.135 275.396 576.995 270.921 577.665C269.572 593.059 259.877 606.111 246.298 612.442V626.481C279.047 627.901 305.162 654.901 305.162 688H329.947V475.138Z" fill="white"/>
</mask>
<g mask="url(#mask17)">
<path fill-rule="evenodd" clip-rule="evenodd" d="M188.969 507.941C193.051 489.659 209.364 476.659 228.097 476.659C246.829 476.659 263.142 489.659 267.225 507.941L272.632 532.155H183.562L188.969 507.941Z" fill="#1F333C"/>
<path fill-rule="evenodd" clip-rule="evenodd" d="M227.709 585.37C279.896 585.37 322.201 565.799 322.201 541.657C322.201 517.516 279.896 497.945 227.709 497.945C175.523 497.945 133.218 517.516 133.218 541.657C133.218 565.799 175.523 585.37 227.709 585.37Z" fill="#1F333C"/>
<path fill-rule="evenodd" clip-rule="evenodd" d="M227.71 556.482C254.231 556.482 275.73 547.973 275.73 537.476C275.73 526.98 254.231 518.471 227.71 518.471C201.189 518.471 179.689 526.98 179.689 537.476C179.689 547.973 201.189 556.482 227.71 556.482Z" fill="#15232A"/>
</g>
</g>
<defs>
<filter id="filter0_d" x="177.186" y="242.994" width="101.048" height="39.4813" filterUnits="userSpaceOnUse" color-interpolation-filters="sRGB">
<feFlood flood-opacity="0" result="BackgroundImageFix"/>
<feColorMatrix in="SourceAlpha" type="matrix" values="0 0 0 0 0 0 0 0 0 0 0 0 0 0 0 0 0 0 127 0"/>
<feOffset dy="2"/>
<feColorMatrix type="matrix" values="0 0 0 0 0 0 0 0 0 0 0 0 0 0 0 0 0 0 0.16 0"/>
<feBlend mode="normal" in2="BackgroundImageFix" result="effect1_dropShadow"/>
<feBlend mode="normal" in="SourceGraphic" in2="effect1_dropShadow" result="shape"/>
</filter>
<filter id="filter1_d" x="384.938" y="70.7006" width="97.537" height="30.7517" filterUnits="userSpaceOnUse" color-interpolation-filters="sRGB">
<feFlood flood-opacity="0" result="BackgroundImageFix"/>
<feColorMatrix in="SourceAlpha" type="matrix" values="0 0 0 0 0 0 0 0 0 0 0 0 0 0 0 0 0 0 127 0"/>
<feOffset dy="2"/>
<feColorMatrix type="matrix" values="0 0 0 0 0 0 0 0 0 0 0 0 0 0 0 0 0 0 0.1 0"/>
<feBlend mode="normal" in2="BackgroundImageFix" result="effect1_dropShadow"/>
<feBlend mode="normal" in="SourceGraphic" in2="effect1_dropShadow" result="shape"/>
</filter>
</defs>
</svg>
